<svg xmlns="http://www.w3.org/2000/svg" viewBox="0 1.8 410.5 98.2" role="img" aria-labelledby="t"><title id="t">Item Response Warehouse</title><defs><mask id="irw-wall-dark" maskUnits="userSpaceOnUse" x="-10" y="-10" width="130" height="130"><rect x="-10" y="-10" width="130" height="130" fill="#fff"/><rect x="25.5" y="85.5" width="17" height="17" rx="5" fill="#000"/><rect x="40.5" y="85.5" width="17" height="17" rx="5" fill="#000"/><rect x="40.5" y="70.5" width="17" height="17" rx="5" fill="#000"/><rect x="55.5" y="85.5" width="17" height="17" rx="5" fill="#000"/><rect x="55.5" y="70.5" width="17" height="17" rx="5" fill="#000"/><rect x="55.5" y="55.5" width="17" height="17" rx="5" fill="#000"/><rect x="70.5" y="85.5" width="17" height="17" rx="5" fill="#000"/><rect x="70.5" y="70.5" width="17" height="17" rx="5" fill="#000"/><rect x="70.5" y="55.5" width="17" height="17" rx="5" fill="#000"/><rect x="70.5" y="40.5" width="17" height="17" rx="5" fill="#000"/><rect x="85.5" y="85.5" width="17" height="17" rx="5" fill="#000"/><rect x="85.5" y="70.5" width="17" height="17" rx="5" fill="#000"/><rect x="85.5" y="55.5" width="17" height="17" rx="5" fill="#000"/><rect x="85.5" y="40.5" width="17" height="17" rx="5" fill="#000"/></mask></defs><path d="M6 100V40L50 9L94 34V100" fill="none" stroke="#fff3e2" stroke-width="12" stroke-linejoin="miter" mask="url(#irw-wall-dark)"/><rect x="28" y="88" width="12" height="12" rx="2.5" fill="#8352ff"/><rect x="43" y="88" width="12" height="12" rx="2.5" fill="#8352ff"/><rect x="43" y="73" width="12" height="12" rx="2.5" fill="#ffca3a"/><rect x="58" y="88" width="12" height="12" rx="2.5" fill="#8352ff"/><rect x="58" y="73" width="12" height="12" rx="2.5" fill="#8352ff"/><rect x="58" y="58" width="12" height="12" rx="2.5" fill="#8352ff"/><rect x="73" y="88" width="12" height="12" rx="2.5" fill="#8352ff"/><rect x="73" y="73" width="12" height="12" rx="2.5" fill="#8352ff"/><rect x="73" y="58" width="12" height="12" rx="2.5" fill="#ffca3a"/><rect x="73" y="43" width="12" height="12" rx="2.5" fill="#8352ff"/><rect x="88" y="88" width="12" height="12" rx="2.5" fill="#8352ff"/><rect x="88" y="73" width="12" height="12" rx="2.5" fill="#8352ff"/><rect x="88" y="58" width="12" height="12" rx="2.5" fill="#8352ff"/><rect x="88" y="43" width="12" height="12" rx="2.5" fill="#8352ff"/><rect x="124" y="8.4" width="3.5" height="83.2" rx="1.75" fill="#fff3e2"/><path d="M156.1 42.76Q154.66 42.76 154.02 42.34Q153.38 41.92 153.24 41.2Q153.1 40.48 153.1 39.72V17.84Q153.1 17.04 153.24 16.36Q153.38 15.68 154.02 15.24Q154.66 14.8 156.14 14.8Q157.66 14.8 158.28 15.24Q158.9 15.68 159.04 16.36Q159.18 17.04 159.18 17.88V39.76Q159.18 40.52 159.02 41.22Q158.86 41.92 158.24 42.34Q157.62 42.76 156.1 42.76ZM172.7 42.76Q170.66 42.76 169.2 42.32Q167.74 41.88 166.78 40.96Q165.82 40.04 165.36 38.62Q164.9 37.2 164.9 35.24V19Q164.9 18.2 165.04 17.56Q165.18 16.92 165.82 16.5Q166.46 16.08 167.9 16.08Q169.34 16.08 169.98 16.52Q170.62 16.96 170.76 17.64Q170.9 18.32 170.9 19.12V35Q170.9 35.64 171 36.06Q171.1 36.48 171.3 36.68Q171.5 36.88 171.86 36.96Q172.22 37.04 172.74 37.04Q173.62 37.04 174.3 37.2Q174.98 37.36 175.36 37.92Q175.74 38.48 175.74 39.8Q175.74 41.24 175.3 41.88Q174.86 42.52 174.16 42.64Q173.46 42.76 172.7 42.76ZM163.66 23.08H168.06L173.58 22.92Q174.34 22.92 175.02 23.06Q175.7 23.2 176.14 23.84Q176.58 24.48 176.58 25.96Q176.58 27.32 176.16 27.96Q175.74 28.6 175.06 28.78Q174.38 28.96 173.58 28.96L168.34 28.84H163.5Q162.34 28.8 161.88 28.14Q161.42 27.48 161.42 25.92Q161.42 24.48 161.98 23.78Q162.54 23.08 163.66 23.08ZM188.78 43.12Q185.98 43.12 183.96 42.2Q181.94 41.28 180.66 39.78Q179.38 38.28 178.76 36.44Q178.14 34.6 178.14 32.76Q178.14 29.76 179.5 27.44Q180.86 25.12 183.26 23.78Q185.66 22.44 188.78 22.44Q191.1 22.44 192.8 23.18Q194.5 23.92 195.6 25.1Q196.7 26.28 197.24 27.64Q197.78 29 197.78 30.24Q197.78 32.44 196.72 33.5Q195.66 34.56 194.02 34.56H184.5Q184.58 35.6 185.24 36.32Q185.9 37.04 186.9 37.44Q187.9 37.84 189.02 37.84Q189.98 37.84 190.7 37.74Q191.42 37.64 191.94 37.46Q192.46 37.28 192.9 37.1Q193.34 36.92 193.68 36.8Q194.02 36.68 194.34 36.64Q194.94 36.6 195.44 36.98Q195.94 37.36 196.34 38.12Q196.62 38.56 196.72 38.96Q196.82 39.36 196.82 39.76Q196.82 40.72 195.84 41.48Q194.86 42.24 193.08 42.68Q191.3 43.12 188.78 43.12ZM184.5 31.28H190.82Q191.46 31.28 191.76 31.06Q192.06 30.84 192.06 30.2Q192.06 29.48 191.62 28.94Q191.18 28.4 190.44 28.1Q189.7 27.8 188.74 27.8Q187.5 27.8 186.54 28.28Q185.58 28.76 185.04 29.56Q184.5 30.36 184.5 31.28ZM203.26 42.76Q201.82 42.76 201.18 42.32Q200.54 41.88 200.42 41.2Q200.3 40.52 200.3 39.72V25.72Q200.3 24.92 200.44 24.26Q200.58 23.6 201.22 23.18Q201.86 22.76 203.34 22.76Q204.82 22.76 205.5 23.34Q206.18 23.92 206.18 25.24L205.66 25.68Q205.74 25.48 206.14 25Q206.54 24.52 207.18 24Q207.82 23.48 208.68 23.1Q209.54 22.72 210.54 22.72Q211.86 22.72 212.92 23.1Q213.98 23.48 214.84 24.22Q215.7 24.96 216.34 26.08Q216.9 25.28 217.7 24.52Q218.5 23.76 219.6 23.24Q220.7 22.72 222.06 22.72Q224.38 22.72 226 23.9Q227.62 25.08 228.46 27.28Q229.3 29.48 229.3 32.6V39.76Q229.3 40.52 229.16 41.22Q229.02 41.92 228.38 42.34Q227.74 42.76 226.26 42.76Q224.78 42.76 224.16 42.32Q223.54 41.88 223.4 41.18Q223.26 40.48 223.26 39.72V32.56Q223.26 31.32 222.98 30.48Q222.7 29.64 222.12 29.18Q221.54 28.72 220.66 28.72Q219.74 28.72 219.1 29.14Q218.46 29.56 218.14 30.42Q217.82 31.28 217.82 32.6V39.76Q217.82 40.56 217.62 41.26Q217.42 41.96 216.76 42.38Q216.1 42.8 214.66 42.76Q213.22 42.72 212.62 42.28Q212.02 41.84 211.9 41.14Q211.78 40.44 211.78 39.72V32.56Q211.78 31.32 211.5 30.46Q211.22 29.6 210.66 29.16Q210.1 28.72 209.18 28.72Q208.18 28.72 207.54 29.24Q206.9 29.76 206.6 30.62Q206.3 31.48 206.3 32.56V39.76Q206.3 40.56 206.16 41.24Q206.02 41.92 205.38 42.34Q204.74 42.76 203.26 42.76ZM245.42 42.76Q243.98 42.76 243.34 42.32Q242.7 41.88 242.56 41.16Q242.42 40.44 242.42 39.68V17.8Q242.42 17.04 242.56 16.36Q242.7 15.68 243.34 15.24Q243.98 14.8 245.46 14.8H253.78Q255.42 14.8 257.14 15.4Q258.86 16 260.3 17.24Q261.74 18.48 262.62 20.32Q263.5 22.16 263.5 24.68Q263.5 26.36 263 27.92Q262.5 29.48 261.5 30.8Q260.5 32.12 259.02 33.06Q257.54 34 255.62 34.4H248.5V39.72Q248.5 40.48 248.34 41.18Q248.18 41.88 247.54 42.32Q246.9 42.76 245.42 42.76ZM262.3 41.96Q260.82 43.04 259.94 42.8Q259.06 42.56 258.1 41.24L251.06 31.16L257.9 30.28L263.06 37.68Q263.74 38.64 263.92 39.32Q264.1 40 263.72 40.6Q263.34 41.2 262.3 41.96ZM248.5 28.4H254.06Q254.62 28.4 255.22 28.18Q255.82 27.96 256.3 27.52Q256.78 27.08 257.1 26.36Q257.42 25.64 257.42 24.64Q257.42 23.48 256.96 22.64Q256.5 21.8 255.66 21.34Q254.82 20.88 253.7 20.88H248.5ZM276.46 43.12Q273.66 43.12 271.64 42.2Q269.62 41.28 268.34 39.78Q267.06 38.28 266.44 36.44Q265.82 34.6 265.82 32.76Q265.82 29.76 267.18 27.44Q268.54 25.12 270.94 23.78Q273.34 22.44 276.46 22.44Q278.78 22.44 280.48 23.18Q282.18 23.92 283.28 25.1Q284.38 26.28 284.92 27.64Q285.46 29 285.46 30.24Q285.46 32.44 284.4 33.5Q283.34 34.56 281.7 34.56H272.18Q272.26 35.6 272.92 36.32Q273.58 37.04 274.58 37.44Q275.58 37.84 276.7 37.84Q277.66 37.84 278.38 37.74Q279.1 37.64 279.62 37.46Q280.14 37.28 280.58 37.1Q281.02 36.92 281.36 36.8Q281.7 36.68 282.02 36.64Q282.62 36.6 283.12 36.98Q283.62 37.36 284.02 38.12Q284.3 38.56 284.4 38.96Q284.5 39.36 284.5 39.76Q284.5 40.72 283.52 41.48Q282.54 42.24 280.76 42.68Q278.98 43.12 276.46 43.12ZM272.18 31.28H278.5Q279.14 31.28 279.44 31.06Q279.74 30.84 279.74 30.2Q279.74 29.48 279.3 28.94Q278.86 28.4 278.12 28.1Q277.38 27.8 276.42 27.8Q275.18 27.8 274.22 28.28Q273.26 28.76 272.72 29.56Q272.18 30.36 272.18 31.28ZM295.22 43.08Q294.14 43.08 292.88 42.84Q291.62 42.6 290.42 42.14Q289.22 41.68 288.42 41.06Q287.62 40.44 287.5 39.64Q287.42 39.24 287.52 38.78Q287.62 38.32 287.9 37.82Q288.18 37.32 288.58 36.76Q288.9 36.32 289.3 36.2Q289.7 36.08 290.22 36.24Q290.86 36.36 291.52 36.66Q292.18 36.96 292.84 37.3Q293.5 37.64 294.22 37.9Q294.94 38.16 295.7 38.16Q296.82 38.16 297.44 37.82Q298.06 37.48 298.06 36.88Q298.06 36.44 297.8 36.16Q297.54 35.88 297.08 35.66Q296.62 35.44 296.02 35.28Q295.42 35.12 294.72 34.94Q294.02 34.76 293.3 34.56Q292.3 34.28 291.38 33.84Q290.46 33.4 289.7 32.7Q288.94 32 288.5 30.98Q288.06 29.96 288.06 28.48Q288.06 26.52 288.98 25.2Q289.9 23.88 291.66 23.18Q293.42 22.48 295.94 22.48Q296.66 22.48 297.38 22.56Q298.1 22.64 298.8 22.84Q299.5 23.04 300.18 23.32Q300.86 23.6 301.54 24Q302.74 24.56 302.78 25.52Q302.82 26.48 302.1 27.48Q301.66 28.16 301.18 28.46Q300.7 28.76 300.18 28.64Q299.54 28.48 298.8 28.12Q298.06 27.76 297.24 27.44Q296.42 27.12 295.62 27.12Q294.94 27.12 294.46 27.3Q293.98 27.48 293.74 27.78Q293.5 28.08 293.5 28.48Q293.5 29 293.8 29.3Q294.1 29.6 294.62 29.8Q295.14 30 295.82 30.16Q296.5 30.32 297.3 30.48Q298.38 30.68 299.52 31.02Q300.66 31.36 301.6 32Q302.54 32.64 303.12 33.72Q303.7 34.8 303.7 36.56Q303.7 39.72 301.5 41.4Q299.3 43.08 295.22 43.08ZM316.82 42.4Q314.86 42.4 313.36 41.62Q311.86 40.84 310.88 39.5Q309.9 38.16 309.4 36.4Q308.9 34.64 308.94 32.6Q308.94 30.64 309.46 28.86Q309.98 27.08 310.96 25.7Q311.94 24.32 313.4 23.54Q314.86 22.76 316.82 22.76Q318.58 22.76 320.24 23.56Q321.9 24.36 323.18 25.74Q324.46 27.12 325.2 28.92Q325.94 30.72 325.94 32.72Q325.94 34.72 325.2 36.5Q324.46 38.28 323.18 39.6Q321.9 40.92 320.26 41.66Q318.62 42.4 316.82 42.4ZM309.1 51.04Q307.66 51.04 307.04 50.62Q306.42 50.2 306.28 49.54Q306.14 48.88 306.14 48.12V25.76Q306.14 24.96 306.26 24.3Q306.38 23.64 307 23.2Q307.62 22.76 309.06 22.76Q310.3 22.76 311.04 23.12Q311.78 23.48 312.1 24.24V48.08Q312.14 48.84 311.98 49.52Q311.82 50.2 311.2 50.62Q310.58 51.04 309.1 51.04ZM315.98 36.76Q317.1 36.76 317.98 36.22Q318.86 35.68 319.4 34.76Q319.94 33.84 319.94 32.72Q319.94 31.56 319.42 30.66Q318.9 29.76 318.02 29.24Q317.14 28.72 316.02 28.72Q314.94 28.72 314.04 29.26Q313.14 29.8 312.64 30.7Q312.14 31.6 312.14 32.72Q312.14 33.84 312.66 34.76Q313.18 35.68 314.06 36.22Q314.94 36.76 315.98 36.76ZM338.02 43.08Q336.14 43.08 334.28 42.34Q332.42 41.6 330.9 40.24Q329.38 38.88 328.5 36.98Q327.62 35.08 327.62 32.76Q327.62 30.6 328.42 28.74Q329.22 26.88 330.66 25.44Q332.1 24 333.96 23.18Q335.82 22.36 337.94 22.36Q340.82 22.36 343.16 23.74Q345.5 25.12 346.9 27.48Q348.3 29.84 348.3 32.72Q348.3 35.16 347.4 37.06Q346.5 38.96 345 40.32Q343.5 41.68 341.68 42.38Q339.86 43.08 338.02 43.08ZM337.94 37.04Q338.9 37.04 339.9 36.56Q340.9 36.08 341.58 35.12Q342.26 34.16 342.26 32.68Q342.26 31.4 341.7 30.44Q341.14 29.48 340.16 28.94Q339.18 28.4 337.9 28.4Q336.7 28.4 335.76 28.96Q334.82 29.52 334.24 30.5Q333.66 31.48 333.66 32.72Q333.66 34.16 334.32 35.14Q334.98 36.12 335.98 36.58Q336.98 37.04 337.94 37.04ZM353.78 42.72Q352.3 42.72 351.68 42.3Q351.06 41.88 350.92 41.18Q350.78 40.48 350.78 39.72V25.64Q350.78 24.88 350.94 24.22Q351.1 23.56 351.72 23.16Q352.34 22.76 353.82 22.76Q355.1 22.76 355.7 23.1Q356.3 23.44 356.48 23.92Q356.66 24.4 356.66 24.82Q356.66 25.24 356.74 25.4L356.5 26.16Q356.58 25.56 357.12 24.94Q357.66 24.32 358.48 23.82Q359.3 23.32 360.24 23.04Q361.18 22.76 362.1 22.76Q364.02 22.76 365.52 23.46Q367.02 24.16 368.06 25.48Q369.1 26.8 369.64 28.58Q370.18 30.36 370.18 32.48V39.76Q370.18 40.52 370.04 41.22Q369.9 41.92 369.28 42.32Q368.66 42.72 367.18 42.72Q365.66 42.72 365.04 42.3Q364.42 41.88 364.26 41.18Q364.1 40.48 364.1 39.72V32.48Q364.1 31.28 363.7 30.44Q363.3 29.6 362.5 29.14Q361.7 28.68 360.54 28.68Q359.38 28.68 358.54 29.16Q357.7 29.64 357.24 30.48Q356.78 31.32 356.78 32.48V39.76Q356.78 40.52 356.64 41.22Q356.5 41.92 355.88 42.32Q355.26 42.72 353.78 42.72ZM380.5 43.08Q379.42 43.08 378.16 42.84Q376.9 42.6 375.7 42.14Q374.5 41.68 373.7 41.06Q372.9 40.44 372.78 39.64Q372.7 39.24 372.8 38.78Q372.9 38.32 373.18 37.82Q373.46 37.32 373.86 36.76Q374.18 36.32 374.58 36.2Q374.98 36.08 375.5 36.24Q376.14 36.36 376.8 36.66Q377.46 36.96 378.12 37.3Q378.78 37.64 379.5 37.9Q380.22 38.16 380.98 38.16Q382.1 38.16 382.72 37.82Q383.34 37.48 383.34 36.88Q383.34 36.44 383.08 36.16Q382.82 35.88 382.36 35.66Q381.9 35.44 381.3 35.28Q380.7 35.12 380 34.94Q379.3 34.76 378.58 34.56Q377.58 34.28 376.66 33.84Q375.74 33.4 374.98 32.7Q374.22 32 373.78 30.98Q373.34 29.96 373.34 28.48Q373.34 26.52 374.26 25.2Q375.18 23.88 376.94 23.18Q378.7 22.48 381.22 22.48Q381.94 22.48 382.66 22.56Q383.38 22.64 384.08 22.84Q384.78 23.04 385.46 23.32Q386.14 23.6 386.82 24Q388.02 24.56 388.06 25.52Q388.1 26.48 387.38 27.48Q386.94 28.16 386.46 28.46Q385.98 28.76 385.46 28.64Q384.82 28.48 384.08 28.12Q383.34 27.76 382.52 27.44Q381.7 27.12 380.9 27.12Q380.22 27.12 379.74 27.3Q379.26 27.48 379.02 27.78Q378.78 28.08 378.78 28.48Q378.78 29 379.08 29.3Q379.38 29.6 379.9 29.8Q380.42 30 381.1 30.16Q381.78 30.32 382.58 30.48Q383.66 30.68 384.8 31.02Q385.94 31.36 386.88 32Q387.82 32.64 388.4 33.72Q388.98 34.8 388.98 36.56Q388.98 39.72 386.78 41.4Q384.58 43.08 380.5 43.08ZM401.54 43.12Q398.74 43.12 396.72 42.2Q394.7 41.28 393.42 39.78Q392.14 38.28 391.52 36.44Q390.9 34.6 390.9 32.76Q390.9 29.76 392.26 27.44Q393.62 25.12 396.02 23.78Q398.42 22.44 401.54 22.44Q403.86 22.44 405.56 23.18Q407.26 23.92 408.36 25.1Q409.46 26.28 410 27.64Q410.54 29 410.54 30.24Q410.54 32.44 409.48 33.5Q408.42 34.56 406.78 34.56H397.26Q397.34 35.6 398 36.32Q398.66 37.04 399.66 37.44Q400.66 37.84 401.78 37.84Q402.74 37.84 403.46 37.74Q404.18 37.64 404.7 37.46Q405.22 37.28 405.66 37.1Q406.1 36.92 406.44 36.8Q406.78 36.68 407.1 36.64Q407.7 36.6 408.2 36.98Q408.7 37.36 409.1 38.12Q409.38 38.56 409.48 38.96Q409.58 39.36 409.58 39.76Q409.58 40.72 408.6 41.48Q407.62 42.24 405.84 42.68Q404.06 43.12 401.54 43.12ZM397.26 31.28H403.58Q404.22 31.28 404.52 31.06Q404.82 30.84 404.82 30.2Q404.82 29.48 404.38 28.94Q403.94 28.4 403.2 28.1Q402.46 27.8 401.5 27.8Q400.26 27.8 399.3 28.28Q398.34 28.76 397.8 29.56Q397.26 30.36 397.26 31.28Z" fill="#fff3e2"/><path d="M162.98 85.88Q161.94 85.88 161.34 85.48Q160.74 85.08 160.48 84.56Q160.22 84.04 160.14 83.84L152.62 62.04Q152.1 60.36 152.46 59.54Q152.82 58.72 154.54 58.16Q155.66 57.8 156.36 57.84Q157.06 57.88 157.52 58.4Q157.98 58.92 158.34 60.04L163.34 74.88L167.54 60.24Q167.66 59.84 167.92 59.32Q168.18 58.8 168.78 58.4Q169.38 58 170.46 58Q171.7 58 172.32 58.44Q172.94 58.88 173.18 59.4Q173.42 59.92 173.54 60.2L177.78 74.96L182.74 60.08Q183.1 58.96 183.56 58.42Q184.02 57.88 184.76 57.8Q185.5 57.72 186.62 58.12Q187.82 58.56 188.3 59.04Q188.78 59.52 188.8 60.22Q188.82 60.92 188.5 62.04L180.98 83.84Q180.9 84.08 180.64 84.58Q180.38 85.08 179.8 85.48Q179.22 85.88 178.1 85.88Q177.02 85.88 176.38 85.4Q175.74 84.92 175.48 84.38Q175.22 83.84 175.14 83.64L170.54 68.72L165.94 83.64Q165.9 83.84 165.62 84.4Q165.34 84.96 164.72 85.42Q164.1 85.88 162.98 85.88ZM207.58 85.92Q206.1 85.92 205.4 85.4Q204.7 84.88 204.7 84.12L205.1 83.44Q204.86 83.84 204.18 84.42Q203.5 85 202.42 85.46Q201.34 85.92 199.74 85.92Q197.9 85.92 196.24 85.12Q194.58 84.32 193.3 82.9Q192.02 81.48 191.28 79.68Q190.54 77.88 190.54 75.88Q190.54 73.92 191.28 72.14Q192.02 70.36 193.32 68.98Q194.62 67.6 196.26 66.8Q197.9 66 199.74 66Q201.22 66 202.26 66.42Q203.3 66.84 204 67.4Q204.7 67.96 205.06 68.48L204.74 67.92Q204.7 66.96 205.4 66.46Q206.1 65.96 207.62 65.96Q209.06 65.96 209.68 66.4Q210.3 66.84 210.44 67.56Q210.58 68.28 210.58 69.08V82.88Q210.58 83.64 210.44 84.36Q210.3 85.08 209.68 85.5Q209.06 85.92 207.58 85.92ZM200.62 79.96Q201.66 79.96 202.52 79.42Q203.38 78.88 203.88 77.96Q204.38 77.04 204.38 75.92Q204.38 74.76 203.86 73.86Q203.34 72.96 202.46 72.42Q201.58 71.88 200.54 71.88Q199.38 71.88 198.48 72.44Q197.58 73 197.04 73.92Q196.5 74.84 196.5 76Q196.5 77.08 197.04 77.98Q197.58 78.88 198.52 79.42Q199.46 79.96 200.62 79.96ZM216.78 85.96Q215.3 85.96 214.68 85.54Q214.06 85.12 213.92 84.4Q213.78 83.68 213.78 82.92V68.96Q213.78 68.16 213.94 67.48Q214.1 66.8 214.72 66.38Q215.34 65.96 216.82 65.96Q218.22 65.96 218.84 66.34Q219.46 66.72 219.62 67.22Q219.78 67.72 219.78 68.08L219.3 68.32Q219.38 68.16 219.72 67.74Q220.06 67.32 220.66 66.86Q221.26 66.4 222.12 66.08Q222.98 65.76 224.1 65.76Q224.54 65.76 225.08 65.82Q225.62 65.88 226.2 66.06Q226.78 66.24 227.26 66.54Q227.74 66.84 228.04 67.28Q228.34 67.72 228.34 68.36Q228.34 70 227.58 71.14Q226.82 72.28 225.66 72.28Q224.98 72.28 224.7 72.16Q224.42 72.04 224.24 71.92Q224.06 71.8 223.82 71.7Q223.58 71.6 222.94 71.6Q222.34 71.6 221.8 71.76Q221.26 71.92 220.8 72.26Q220.34 72.6 220.08 73.1Q219.82 73.6 219.82 74.2V83Q219.82 83.76 219.68 84.46Q219.54 85.16 218.9 85.56Q218.26 85.96 216.78 85.96ZM240.62 86.32Q237.82 86.32 235.8 85.4Q233.78 84.48 232.5 82.98Q231.22 81.48 230.6 79.64Q229.98 77.8 229.98 75.96Q229.98 72.96 231.34 70.64Q232.7 68.32 235.1 66.98Q237.5 65.64 240.62 65.64Q242.94 65.64 244.64 66.38Q246.34 67.12 247.44 68.3Q248.54 69.48 249.08 70.84Q249.62 72.2 249.62 73.44Q249.62 75.64 248.56 76.7Q247.5 77.76 245.86 77.76H236.34Q236.42 78.8 237.08 79.52Q237.74 80.24 238.74 80.64Q239.74 81.04 240.86 81.04Q241.82 81.04 242.54 80.94Q243.26 80.84 243.78 80.66Q244.3 80.48 244.74 80.3Q245.18 80.12 245.52 80Q245.86 79.88 246.18 79.84Q246.78 79.8 247.28 80.18Q247.78 80.56 248.18 81.32Q248.46 81.76 248.56 82.16Q248.66 82.56 248.66 82.96Q248.66 83.92 247.68 84.68Q246.7 85.44 244.92 85.88Q243.14 86.32 240.62 86.32ZM236.34 74.48H242.66Q243.3 74.48 243.6 74.26Q243.9 74.04 243.9 73.4Q243.9 72.68 243.46 72.14Q243.02 71.6 242.28 71.3Q241.54 71 240.58 71Q239.34 71 238.38 71.48Q237.42 71.96 236.88 72.76Q236.34 73.56 236.34 74.48ZM255.02 85.96Q253.58 85.96 252.94 85.54Q252.3 85.12 252.16 84.42Q252.02 83.72 252.02 82.92V59.88Q252.02 59.08 252.18 58.4Q252.34 57.72 252.98 57.3Q253.62 56.88 255.06 56.88Q256.54 56.88 257.16 57.32Q257.78 57.76 257.92 58.44Q258.06 59.12 258.06 59.92V68.08Q258.78 67.32 259.92 66.64Q261.06 65.96 262.62 65.96Q265.1 65.96 267.08 67.22Q269.06 68.48 270.24 70.68Q271.42 72.88 271.42 75.72V82.96Q271.42 83.76 271.26 84.44Q271.1 85.12 270.5 85.54Q269.9 85.96 268.38 85.96Q266.98 85.96 266.32 85.54Q265.66 85.12 265.52 84.42Q265.38 83.72 265.38 82.92V75.68Q265.38 74.52 264.98 73.7Q264.58 72.88 263.8 72.4Q263.02 71.92 261.9 71.92Q260.42 71.92 259.32 72.82Q258.22 73.72 258.06 75V82.96Q258.06 83.76 257.9 84.44Q257.74 85.12 257.12 85.54Q256.5 85.96 255.02 85.96ZM283.94 86.28Q282.06 86.28 280.2 85.54Q278.34 84.8 276.82 83.44Q275.3 82.08 274.42 80.18Q273.54 78.28 273.54 75.96Q273.54 73.8 274.34 71.94Q275.14 70.08 276.58 68.64Q278.02 67.2 279.88 66.38Q281.74 65.56 283.86 65.56Q286.74 65.56 289.08 66.94Q291.42 68.32 292.82 70.68Q294.22 73.04 294.22 75.92Q294.22 78.36 293.32 80.26Q292.42 82.16 290.92 83.52Q289.42 84.88 287.6 85.58Q285.78 86.28 283.94 86.28ZM283.86 80.24Q284.82 80.24 285.82 79.76Q286.82 79.28 287.5 78.32Q288.18 77.36 288.18 75.88Q288.18 74.6 287.62 73.64Q287.06 72.68 286.08 72.14Q285.1 71.6 283.82 71.6Q282.62 71.6 281.68 72.16Q280.74 72.72 280.16 73.7Q279.58 74.68 279.58 75.92Q279.58 77.36 280.24 78.34Q280.9 79.32 281.9 79.78Q282.9 80.24 283.86 80.24ZM305.3 85.92Q303.46 85.92 301.84 85.2Q300.22 84.48 299.02 83.18Q297.82 81.88 297.16 80.1Q296.5 78.32 296.5 76.2V68.96Q296.5 68.16 296.66 67.48Q296.82 66.8 297.44 66.36Q298.06 65.92 299.54 65.92Q301.02 65.92 301.64 66.36Q302.26 66.8 302.4 67.5Q302.54 68.2 302.54 69V76.2Q302.54 77.36 302.96 78.22Q303.38 79.08 304.2 79.52Q305.02 79.96 306.14 79.96Q307.3 79.96 308.12 79.5Q308.94 79.04 309.4 78.2Q309.86 77.36 309.86 76.2V68.92Q309.86 68.12 310.02 67.44Q310.18 66.76 310.8 66.34Q311.42 65.92 312.9 65.92Q314.38 65.92 315 66.36Q315.62 66.8 315.76 67.5Q315.9 68.2 315.9 68.96V83.04Q315.9 83.8 315.76 84.46Q315.62 85.12 314.98 85.52Q314.34 85.92 312.9 85.92Q311.82 85.92 311.22 85.68Q310.62 85.44 310.34 85.08Q310.06 84.72 310 84.32Q309.94 83.92 309.94 83.6L310.46 83.16Q310.34 83.32 309.94 83.76Q309.54 84.2 308.88 84.7Q308.22 85.2 307.34 85.56Q306.46 85.92 305.3 85.92ZM326.3 86.28Q325.22 86.28 323.96 86.04Q322.7 85.8 321.5 85.34Q320.3 84.88 319.5 84.26Q318.7 83.64 318.58 82.84Q318.5 82.44 318.6 81.98Q318.7 81.52 318.98 81.02Q319.26 80.52 319.66 79.96Q319.98 79.52 320.38 79.4Q320.78 79.28 321.3 79.44Q321.94 79.56 322.6 79.86Q323.26 80.16 323.92 80.5Q324.58 80.84 325.3 81.1Q326.02 81.36 326.78 81.36Q327.9 81.36 328.52 81.02Q329.14 80.68 329.14 80.08Q329.14 79.64 328.88 79.36Q328.62 79.08 328.16 78.86Q327.7 78.64 327.1 78.48Q326.5 78.32 325.8 78.14Q325.1 77.96 324.38 77.76Q323.38 77.48 322.46 77.04Q321.54 76.6 320.78 75.9Q320.02 75.2 319.58 74.18Q319.14 73.16 319.14 71.68Q319.14 69.72 320.06 68.4Q320.98 67.08 322.74 66.38Q324.5 65.68 327.02 65.68Q327.74 65.68 328.46 65.76Q329.18 65.84 329.88 66.04Q330.58 66.24 331.26 66.52Q331.94 66.8 332.62 67.2Q333.82 67.76 333.86 68.72Q333.9 69.68 333.18 70.68Q332.74 71.36 332.26 71.66Q331.78 71.96 331.26 71.84Q330.62 71.68 329.88 71.32Q329.14 70.96 328.32 70.64Q327.5 70.32 326.7 70.32Q326.02 70.32 325.54 70.5Q325.06 70.68 324.82 70.98Q324.58 71.28 324.58 71.68Q324.58 72.2 324.88 72.5Q325.18 72.8 325.7 73Q326.22 73.2 326.9 73.36Q327.58 73.52 328.38 73.68Q329.46 73.88 330.6 74.22Q331.74 74.56 332.68 75.2Q333.62 75.84 334.2 76.92Q334.78 78 334.78 79.76Q334.78 82.92 332.58 84.6Q330.38 86.28 326.3 86.28ZM347.34 86.32Q344.54 86.32 342.52 85.4Q340.5 84.48 339.22 82.98Q337.94 81.48 337.32 79.64Q336.7 77.8 336.7 75.96Q336.7 72.96 338.06 70.64Q339.42 68.32 341.82 66.98Q344.22 65.64 347.34 65.64Q349.66 65.64 351.36 66.38Q353.06 67.12 354.16 68.3Q355.26 69.48 355.8 70.84Q356.34 72.2 356.34 73.44Q356.34 75.64 355.28 76.7Q354.22 77.76 352.58 77.76H343.06Q343.14 78.8 343.8 79.52Q344.46 80.24 345.46 80.64Q346.46 81.04 347.58 81.04Q348.54 81.04 349.26 80.94Q349.98 80.84 350.5 80.66Q351.02 80.48 351.46 80.3Q351.9 80.12 352.24 80Q352.58 79.88 352.9 79.84Q353.5 79.8 354 80.18Q354.5 80.56 354.9 81.32Q355.18 81.76 355.28 82.16Q355.38 82.56 355.38 82.96Q355.38 83.92 354.4 84.68Q353.42 85.44 351.64 85.88Q349.86 86.32 347.34 86.32ZM343.06 74.48H349.38Q350.02 74.48 350.32 74.26Q350.62 74.04 350.62 73.4Q350.62 72.68 350.18 72.14Q349.74 71.6 349 71.3Q348.26 71 347.3 71Q346.06 71 345.1 71.48Q344.14 71.96 343.6 72.76Q343.06 73.56 343.06 74.48Z" fill="#fff3e2"/></svg>
