<svg xmlns="http://www.w3.org/2000/svg" viewBox="0 0 136 154" width="136" height="154" role="img" aria-label="Item Response Warehouse"><title>Item Response Warehouse</title><path d="M71.0 9 L131.0 29.4 L131.0 149.4 L11.0 149.4 L11.0 29.4 Z" fill="#1c1c22" stroke="#1c1c22" stroke-width="3" stroke-linejoin="round"/><path d="M66.0 4 L126.0 24.4 L126.0 144.4 L6.0 144.4 L6.0 24.4 Z" fill="#8352ff" stroke="#1c1c22" stroke-width="3" stroke-linejoin="round"/><rect x="17.0" y="35.4" width="20" height="20" rx="3.4" fill="#fff3e2" stroke="#1c1c22" stroke-width="2.2"/><rect x="43.0" y="35.4" width="20" height="20" rx="3.4" fill="#fff3e2" stroke="#1c1c22" stroke-width="2.2"/><rect x="69.0" y="35.4" width="20" height="20" rx="3.4" fill="#fff3e2" stroke="#1c1c22" stroke-width="2.2"/><rect x="95.0" y="35.4" width="20" height="20" rx="3.4" fill="#fff3e2" stroke="#1c1c22" stroke-width="2.2"/><rect x="17.0" y="61.4" width="20" height="20" rx="3.4" fill="#fff3e2" stroke="#1c1c22" stroke-width="2.2"/><rect x="43.0" y="61.4" width="20" height="20" rx="3.4" fill="#fff3e2" stroke="#1c1c22" stroke-width="2.2"/><circle cx="79.0" cy="71.4" r="2.4" fill="#1c1c22" opacity="0"/><rect x="95.0" y="61.4" width="20" height="20" rx="3.4" fill="#ffca3a" stroke="#1c1c22" stroke-width="2.2"/><rect x="17.0" y="87.4" width="20" height="20" rx="3.4" fill="#fff3e2" stroke="#1c1c22" stroke-width="2.2"/><circle cx="53.0" cy="97.4" r="2.4" fill="#1c1c22" opacity="0"/><rect x="69.0" y="87.4" width="20" height="20" rx="3.4" fill="#ffca3a" stroke="#1c1c22" stroke-width="2.2"/><circle cx="105.0" cy="97.4" r="2.4" fill="#1c1c22" opacity="0"/><rect x="17.0" y="113.4" width="20" height="20" rx="3.4" fill="#fff3e2" stroke="#1c1c22" stroke-width="2.2"/><circle cx="53.0" cy="123.4" r="2.4" fill="#1c1c22" opacity="0"/><circle cx="79.0" cy="123.4" r="2.4" fill="#1c1c22" opacity="0"/><circle cx="105.0" cy="123.4" r="2.4" fill="#1c1c22" opacity="0"/></svg>
