<svg xmlns="http://www.w3.org/2000/svg" viewBox="-1.9 -0.3 108.3 106.6" role="img" aria-labelledby="t"><title id="t">Item Response Warehouse</title><defs><mask id="irw-wall-outlined" maskUnits="userSpaceOnUse" x="-10" y="-10" width="130" height="130"><rect x="-10" y="-10" width="130" height="130" fill="#fff"/><rect x="23.7" y="83.7" width="20.6" height="20.6" rx="6.8" fill="#000"/><rect x="38.7" y="83.7" width="20.6" height="20.6" rx="6.8" fill="#000"/><rect x="38.7" y="68.7" width="20.6" height="20.6" rx="6.8" fill="#000"/><rect x="53.7" y="83.7" width="20.6" height="20.6" rx="6.8" fill="#000"/><rect x="53.7" y="68.7" width="20.6" height="20.6" rx="6.8" fill="#000"/><rect x="53.7" y="53.7" width="20.6" height="20.6" rx="6.8" fill="#000"/><rect x="68.7" y="83.7" width="20.6" height="20.6" rx="6.8" fill="#000"/><rect x="68.7" y="68.7" width="20.6" height="20.6" rx="6.8" fill="#000"/><rect x="68.7" y="53.7" width="20.6" height="20.6" rx="6.8" fill="#000"/><rect x="68.7" y="38.7" width="20.6" height="20.6" rx="6.8" fill="#000"/><rect x="83.7" y="83.7" width="20.6" height="20.6" rx="6.8" fill="#000"/><rect x="83.7" y="68.7" width="20.6" height="20.6" rx="6.8" fill="#000"/><rect x="83.7" y="53.7" width="20.6" height="20.6" rx="6.8" fill="#000"/><rect x="83.7" y="38.7" width="20.6" height="20.6" rx="6.8" fill="#000"/></mask></defs><g transform="translate(4.5 4.5)"><path d="M6 101.8V40L50 9L94 34V101.8" fill="none" stroke="#1c1c22" stroke-width="15.6" stroke-linejoin="miter"/><rect x="26.2" y="86.2" width="15.6" height="15.6" rx="4.3" fill="#1c1c22"/><rect x="41.2" y="86.2" width="15.6" height="15.6" rx="4.3" fill="#1c1c22"/><rect x="41.2" y="71.2" width="15.6" height="15.6" rx="4.3" fill="#1c1c22"/><rect x="56.2" y="86.2" width="15.6" height="15.6" rx="4.3" fill="#1c1c22"/><rect x="56.2" y="71.2" width="15.6" height="15.6" rx="4.3" fill="#1c1c22"/><rect x="56.2" y="56.2" width="15.6" height="15.6" rx="4.3" fill="#1c1c22"/><rect x="71.2" y="86.2" width="15.6" height="15.6" rx="4.3" fill="#1c1c22"/><rect x="71.2" y="71.2" width="15.6" height="15.6" rx="4.3" fill="#1c1c22"/><rect x="71.2" y="56.2" width="15.6" height="15.6" rx="4.3" fill="#1c1c22"/><rect x="71.2" y="41.2" width="15.6" height="15.6" rx="4.3" fill="#1c1c22"/><rect x="86.2" y="86.2" width="15.6" height="15.6" rx="4.3" fill="#1c1c22"/><rect x="86.2" y="71.2" width="15.6" height="15.6" rx="4.3" fill="#1c1c22"/><rect x="86.2" y="56.2" width="15.6" height="15.6" rx="4.3" fill="#1c1c22"/><rect x="86.2" y="41.2" width="15.6" height="15.6" rx="4.3" fill="#1c1c22"/></g><path d="M6 101.8V40L50 9L94 34V101.8" fill="none" stroke="#1c1c22" stroke-width="15.6" stroke-linejoin="miter" mask="url(#irw-wall-outlined)"/><rect x="26.2" y="86.2" width="15.6" height="15.6" rx="4.3" fill="#1c1c22"/><rect x="41.2" y="86.2" width="15.6" height="15.6" rx="4.3" fill="#1c1c22"/><rect x="41.2" y="71.2" width="15.6" height="15.6" rx="4.3" fill="#1c1c22"/><rect x="56.2" y="86.2" width="15.6" height="15.6" rx="4.3" fill="#1c1c22"/><rect x="56.2" y="71.2" width="15.6" height="15.6" rx="4.3" fill="#1c1c22"/><rect x="56.2" y="56.2" width="15.6" height="15.6" rx="4.3" fill="#1c1c22"/><rect x="71.2" y="86.2" width="15.6" height="15.6" rx="4.3" fill="#1c1c22"/><rect x="71.2" y="71.2" width="15.6" height="15.6" rx="4.3" fill="#1c1c22"/><rect x="71.2" y="56.2" width="15.6" height="15.6" rx="4.3" fill="#1c1c22"/><rect x="71.2" y="41.2" width="15.6" height="15.6" rx="4.3" fill="#1c1c22"/><rect x="86.2" y="86.2" width="15.6" height="15.6" rx="4.3" fill="#1c1c22"/><rect x="86.2" y="71.2" width="15.6" height="15.6" rx="4.3" fill="#1c1c22"/><rect x="86.2" y="56.2" width="15.6" height="15.6" rx="4.3" fill="#1c1c22"/><rect x="86.2" y="41.2" width="15.6" height="15.6" rx="4.3" fill="#1c1c22"/><path d="M6 100V40L50 9L94 34V100" fill="none" stroke="#8352ff" stroke-width="12" stroke-linejoin="miter" mask="url(#irw-wall-outlined)"/><rect x="28" y="88" width="12" height="12" rx="2.5" fill="#8352ff"/><rect x="43" y="88" width="12" height="12" rx="2.5" fill="#8352ff"/><rect x="43" y="73" width="12" height="12" rx="2.5" fill="#ffca3a"/><rect x="58" y="88" width="12" height="12" rx="2.5" fill="#8352ff"/><rect x="58" y="73" width="12" height="12" rx="2.5" fill="#8352ff"/><rect x="58" y="58" width="12" height="12" rx="2.5" fill="#8352ff"/><rect x="73" y="88" width="12" height="12" rx="2.5" fill="#8352ff"/><rect x="73" y="73" width="12" height="12" rx="2.5" fill="#8352ff"/><rect x="73" y="58" width="12" height="12" rx="2.5" fill="#ffca3a"/><rect x="73" y="43" width="12" height="12" rx="2.5" fill="#8352ff"/><rect x="88" y="88" width="12" height="12" rx="2.5" fill="#8352ff"/><rect x="88" y="73" width="12" height="12" rx="2.5" fill="#8352ff"/><rect x="88" y="58" width="12" height="12" rx="2.5" fill="#8352ff"/><rect x="88" y="43" width="12" height="12" rx="2.5" fill="#8352ff"/></svg>
