<svg xmlns="http://www.w3.org/2000/svg" viewBox="0 0 32 32" role="img" aria-labelledby="t"><title id="t">Item Response Warehouse</title><!-- Hand-tuned 32px icon on the pixel grid: full right wall, front column of boxes in front of it (masked gap). --><defs><mask id="irw-fav32" maskUnits="userSpaceOnUse" x="0" y="0" width="32" height="32"><rect width="32" height="32" fill="#fff"/><rect x="7" y="27" width="6" height="6" fill="#000"/><rect x="12" y="27" width="6" height="6" fill="#000"/><rect x="12" y="22" width="6" height="6" fill="#000"/><rect x="17" y="27" width="6" height="6" fill="#000"/><rect x="17" y="22" width="6" height="6" fill="#000"/><rect x="17" y="17" width="6" height="6" fill="#000"/><rect x="22" y="27" width="6" height="6" fill="#000"/><rect x="22" y="22" width="6" height="6" fill="#000"/><rect x="22" y="17" width="6" height="6" fill="#000"/><rect x="22" y="12" width="6" height="6" fill="#000"/><rect x="27" y="27" width="6" height="6" fill="#000"/><rect x="27" y="22" width="6" height="6" fill="#000"/><rect x="27" y="17" width="6" height="6" fill="#000"/><rect x="27" y="12" width="6" height="6" fill="#000"/></mask></defs><path d="M1.5 32V13L16 3L30.5 11V32" fill="none" stroke="#8352ff" stroke-width="3" stroke-linejoin="miter" mask="url(#irw-fav32)"/><rect x="8" y="28" width="4" height="4" rx="0.8" fill="#8352ff"/><rect x="13" y="28" width="4" height="4" rx="0.8" fill="#8352ff"/><rect x="13" y="23" width="4" height="4" rx="0.8" fill="#ffca3a"/><rect x="18" y="28" width="4" height="4" rx="0.8" fill="#8352ff"/><rect x="18" y="23" width="4" height="4" rx="0.8" fill="#8352ff"/><rect x="18" y="18" width="4" height="4" rx="0.8" fill="#8352ff"/><rect x="23" y="28" width="4" height="4" rx="0.8" fill="#8352ff"/><rect x="23" y="23" width="4" height="4" rx="0.8" fill="#8352ff"/><rect x="23" y="18" width="4" height="4" rx="0.8" fill="#ffca3a"/><rect x="23" y="13" width="4" height="4" rx="0.8" fill="#8352ff"/><rect x="28" y="28" width="4" height="4" rx="0.8" fill="#8352ff"/><rect x="28" y="23" width="4" height="4" rx="0.8" fill="#8352ff"/><rect x="28" y="18" width="4" height="4" rx="0.8" fill="#8352ff"/><rect x="28" y="13" width="4" height="4" rx="0.8" fill="#8352ff"/></svg>
