<svg xmlns="http://www.w3.org/2000/svg" viewBox="0 1.8 100 98.2" role="img" aria-labelledby="t"><title id="t">Item Response Warehouse</title><path d="M6 100V40L50 9L94 34V50" fill="none" stroke="#fff3e2" stroke-width="12" stroke-linejoin="miter" stroke-miterlimit="4"/><rect x="16" y="88" width="12" height="12" rx="2.5" fill="#ffca3a"/><rect x="31" y="88" width="12" height="12" rx="2.5" fill="#8352ff"/><rect x="31" y="73" width="12" height="12" rx="2.5" fill="#8352ff"/><rect x="46" y="88" width="12" height="12" rx="2.5" fill="#8352ff"/><rect x="46" y="73" width="12" height="12" rx="2.5" fill="#8352ff"/><rect x="46" y="58" width="12" height="12" rx="2.5" fill="#8352ff"/><rect x="61" y="88" width="12" height="12" rx="2.5" fill="#8352ff"/><rect x="61" y="73" width="12" height="12" rx="2.5" fill="#8352ff"/><rect x="61" y="58" width="12" height="12" rx="2.5" fill="#8352ff"/><rect x="61" y="43" width="12" height="12" rx="2.5" fill="#8352ff"/><rect x="76" y="88" width="12" height="12" rx="2.5" fill="#8352ff"/><rect x="76" y="73" width="12" height="12" rx="2.5" fill="#8352ff"/><rect x="76" y="58" width="12" height="12" rx="2.5" fill="#8352ff"/><rect x="76" y="43" width="12" height="12" rx="2.5" fill="#ffca3a"/></svg>
